<?xml version="1.0" encoding="UTF-8"?>
<!DOCTYPE svg PUBLIC "-//W3C//DTD SVG 1.1//EN" "http://www.w3.org/Graphics/SVG/1.1/DTD/svg11.dtd">
<svg version="1.1" xmlns="http://www.w3.org/2000/svg" xmlns:xlink="http://www.w3.org/1999/xlink" x="0" y="0" width="625" height="625" viewBox="0, 0, 625, 625">
  <g id="Layer_1">
    <path d="M572.227,356.578 L576.063,398.46 C576.063,445.593 460.594,483.796 318.156,483.796 C175.719,483.796 60.234,445.593 60.234,398.46 L61.969,355.781 L572.227,356.578" fill="#F8CA79"/>
    <path d="M572.227,359.344 C572.227,389.32 529.367,415.742 458.742,430.96 C418.305,439.671 370.016,447.516 318.156,447.516 C266.281,447.516 217.211,444.187 176.766,435.477 C106.141,420.257 61.75,389.32 61.75,359.344 C61.75,329.375 106.313,299.398 176.945,284.171 C217.375,275.461 266.281,272.305 318.156,272.305 C370.016,272.305 417.609,282.992 458.039,291.711 C528.672,306.937 572.227,329.375 572.227,359.344" fill="#D6812F"/>
    <path d="M559.391,294.625 L563.219,336.5 C563.219,383.641 447.75,421.844 305.305,421.844 C162.875,421.844 47.391,383.641 47.391,336.5 L49.133,293.828 L559.391,294.625" fill="#F8CA79"/>
    <path d="M559.391,297.391 C559.391,327.367 516.531,353.773 445.906,369.001 C405.461,377.719 357.18,385.555 305.305,385.555 C253.453,385.555 204.367,382.234 163.93,373.523 C93.297,358.297 48.899,327.367 48.899,297.391 C48.899,267.421 93.469,237.445 164.094,222.219 C204.531,213.501 253.453,210.352 305.305,210.352 C357.18,210.352 404.766,221.047 445.203,229.75 C515.828,244.984 559.391,267.421 559.391,297.391" fill="#D6812F"/>
    <path d="M572.227,235.844 L576.063,277.719 C576.063,324.859 460.594,363.063 318.156,363.063 C175.719,363.063 60.234,324.859 60.234,277.719 L61.969,235.039 L572.227,235.844" fill="#F8CA79"/>
    <path d="M572.227,238.609 C572.227,268.571 529.367,294.992 458.742,310.219 C418.305,318.938 370.016,326.765 318.156,326.765 C266.281,326.765 217.211,323.453 176.766,314.735 C106.141,299.507 61.75,268.571 61.75,238.609 C61.75,208.633 106.313,178.649 176.945,163.43 C217.375,154.727 266.281,151.578 318.156,151.578 C370.016,151.578 417.609,162.25 458.039,170.977 C528.672,186.196 572.227,208.633 572.227,238.609" fill="#D6812F"/>
    <path d="M181.604,411.406 C182.977,425.975 188.318,437.937 198.997,437.937 C202.717,437.937 207.084,436.485 212.156,433.188 C217.075,429.992 220.158,424.349 221.913,417.284 C207.895,415.7 194.418,413.728 181.604,411.406" fill="#C16C34"/>
    <path d="M184.153,377.328 C182.722,385.698 181.617,393.214 181.352,398.813 C181.147,403.079 181.221,407.343 181.604,411.406 C194.418,413.728 207.895,415.7 221.913,417.284 C224.363,407.419 224.223,394.78 222.874,382.164 C209.429,380.933 196.476,379.337 184.153,377.328" fill="#C5773E"/>
    <path d="M188.77,351.565 C187.234,360.307 185.541,369.218 184.153,377.328 C196.476,379.337 209.429,380.933 222.874,382.164 C221.923,373.268 220.371,364.384 218.704,356.487 C208.37,355.057 198.37,353.41 188.77,351.565" fill="#C16C34"/>
    <path d="M193.02,317.875 C192.842,326.863 190.969,339.041 188.77,351.565 C198.37,353.41 208.37,355.057 218.704,356.487 C216.264,344.935 213.575,335.5 212.156,331.25 C211.041,327.905 210.621,324.314 211.087,320.627 C204.925,319.804 198.899,318.889 193.02,317.875" fill="#C5773E"/>
    <path d="M315.645,176.414 C273.163,176.417 227.509,194.383 206.235,200.859 C178.977,209.157 158.82,215.086 145.797,247.094 C132.75,279.094 178.977,296.875 189.641,303.984 C192.254,305.729 193.159,310.818 193.02,317.875 C198.899,318.889 204.925,319.804 211.087,320.627 C212.606,308.634 223.518,295.629 250.492,286.797 C259.857,283.733 269.461,282.596 279.443,282.596 C293.836,282.596 309.014,284.961 325.39,287.328 C341.766,289.693 359.339,292.059 378.529,292.059 C388.591,292.059 399.1,291.408 410.109,289.766 C437.985,285.61 472.938,267.242 465.82,228.125 C458.703,189.007 392.336,191.382 343.742,179.531 C334.752,177.338 325.283,176.414 315.645,176.414" fill="#C16C34"/>
    <path d="M453.969,248.875 C451.188,260.031 442.125,273.172 424.336,277.914 C406.555,282.656 407.149,277.914 420.188,271.391 C433.234,264.867 449.812,248.875 448.039,238.203 C446.273,227.539 457.227,235.836 453.969,248.875" fill="#E7B273"/>
    <path d="M154.086,256.57 C153.75,264.273 158.235,276.719 166.531,279.094 C174.828,281.461 159.719,262.797 160.016,253.609 C160.227,246.703 154.477,247.289 154.086,256.57" fill="#E7B273"/>
    <path d="M255.234,235.438 C255.234,235.438 252.859,233.258 248.922,238.602 C243.922,245.352 253.656,259.938 277.75,245.711 C290.586,238.133 312.133,248.078 329.524,249.656 C346.906,251.234 364.289,248.078 367.453,238.602 C370.609,229.109 359.547,221.211 359.547,221.211 C362.703,195.922 346.984,165.453 313.703,167.469 C287.625,169.055 265.125,175.031 257.61,202.25 C251.281,225.164 255.234,235.438 255.234,235.438" fill="#F8CA79"/>
    <path d="M356.375,223.578 C355.203,231.875 351.242,234.25 334.649,235.438 C318.063,236.617 301.453,235.438 301.453,235.438 C301.453,235.438 345.328,223.578 344.133,205.805 C342.953,188.023 348.484,188.813 353.235,200.664 C357.961,212.516 356.375,223.578 356.375,223.578" fill="#E7B273"/>
  </g>
</svg>
